# xmcd
#
# Track frame offsets: 
#        150
#        13908
#        32158
#        46728
#        64124
#        82976
#        102206
#        114289
#        173076
#
# Disc length: 2690 seconds
#
# Revision: 0
# Processed by: cddbd v1.5.2PL0 Copyright (c) Steve Scherf et al.
# Submitted via: ExactAudioCopyFreeDBPlugin 1.0
#
DISCID=650a8009
DTITLE=Boz Scaggs - Boz Scaggs (1977)
DYEAR=1977
DGENRE=Blues
TTITLE0=I'm Easy
TTITLE1=I'll Be Long Gone
TTITLE2=Another Day (Another Letter) 
TTITLE3=Now You're Gone
TTITLE4=Finding Her
TTITLE5=Look What I Got
TTITLE6=Waiting For A Train
TTITLE7=Loan Me A Dime
TTITLE8=Sweet Release
EXTD=
EXTT0=
EXTT1=
EXTT2=
EXTT3=
EXTT4=
EXTT5=
EXTT6=
EXTT7=
EXTT8=
PLAYORDER=
